<svg fill="none" height="900" viewBox="0 0 1600 900" width="1600" xmlns="http://www.w3.org/2000/svg" xmlns:xlink="http://www.w3.org/1999/xlink"><linearGradient id="a" x1="0" x2="1" y1="0" y2="1"><stop offset="0" stop-color="#0a0014"/><stop offset=".55" stop-color="#2b0052"/><stop offset="1"/></linearGradient><radialGradient id="b" cx=".5" cy=".6" r=".6"><stop offset="0" stop-color="#fff" stop-opacity=".06"/><stop offset="1" stop-color="#fff" stop-opacity="0"/></radialGradient><filter id="c" height="200%" width="200%" x="-50%" y="-50%"><feGaussianBlur result="blur" stdDeviation="12"/><feMerge><feMergeNode in="blur"/><feMergeNode in="SourceGraphic"/></feMerge></filter><path d="m0 0h1600v900h-1600z" fill="url(#a)"/><path d="m0 0h1600v900h-1600z" fill="url(#b)"/><path d="m0 620h1600v2h-1600z" fill="#2c1a49" opacity=".5"/><g fill="#0d061a" stroke="#492c7a" stroke-opacity=".35" stroke-width="2" transform="matrix(1.2 0 0 1.2 180 480)"><path d="m60 70c60-60 200-70 360-70 140 0 260 10 340 30 60 15 140 50 220 90 20 10 30 30 28 46s-15 30-33 34h-915c-22-2-38-16-40-34s4-46 40-96z"/><circle cx="280" cy="200" fill="#120a24" r="42" stroke="#6a00ff" stroke-opacity=".25"/><circle cx="780" cy="200" fill="#120a24" r="42" stroke="#6a00ff" stroke-opacity=".25"/><ellipse cx="1020" cy="150" fill="#b100ff" filter="url(#c)" opacity=".15" rx="38" ry="16"/><path d="m220 40c140-22 320-26 520-12 40 3 80 12 120 28l-10 28c-30-10-70-18-110-22-200-16-380-12-520 8z" fill="#1a0f2d"/></g><g transform="translate(1080 300)"><ellipse cx="100" cy="360" fill="#000" opacity=".35" rx="140" ry="24"/><path d="m95 80c-5 30 5 80 5 120l2 60-20 100h36l-12-80 14-80c8-50 12-90 8-120z" fill="#0d061a"/><circle cx="110" cy="58" fill="#0d061a" r="28"/><path d="m108 118 4 30-12 24h16l-12-24z" fill="#6a00ff" opacity=".6"/><path d="m126 160c24-10 40 6 42 22s-14 30-38 26l-20-4" fill="none" stroke="#22163a" stroke-linecap="round" stroke-width="10"/></g><g font-family="Inter, Arial"><text fill="#eaeaea" font-size="56" font-weight="800" x="120" y="220">Premium Driver</text><text fill="#c9b6ff" font-size="22" font-weight="600" x="120" y="268">Professional. Discreet. Ready to ride.</text></g></svg>